# xmcd CD database file
#
# Track frame offsets:
#	150
#	17477
#	40240
#	56077
#	77385
#	96970
#	115725
#	136285
#	157340
#	177015
#	190692
#	206215
#	225407
#	241300
#	256395
#
# Disc length: 3639 seconds
#
# Revision: 0
# Processed by: cddbd v1.5PL3 Copyright (c) Steve Scherf et al.
# Submitted via: CDex 1.51
#
DISCID=c00e350f
DTITLE=Artistes variés - 10  ans de Blues au Québec
DYEAR=2004
DGENRE=Blues
TTITLE0=Tired of Crying (Stephen Barry Band)
TTITLE1=Way Down Below (Steve Hill)
TTITLE2=I'm a Woman (Nanette Workman)
TTITLE3=Too tired (Bob Walsh)
TTITLE4=Slow Playing Blues (Vann «Pianoman» Walls)
TTITLE5=Si tu m'aimes (Mike Goudreau and Boppin Blues Band)
TTITLE6=Rollin' and Tumblin' (Stephen Barry Band)
TTITLE7=Patient Man (Steve Hill)
TTITLE8=Jesus Gonna Be Here (Pat the White)
TTITLE9=If U Wanna Love Me (Bob Walsh)
TTITLE10=It Takes Time (Stephen Barry Band)
TTITLE11=One Way Out (Bob Walsh)
TTITLE12=Hound Dog Man (Nanette Workman)
TTITLE13=Blues Matin (Guy Bélanger - Claude Fradette)
TTITLE14=Here On the Highway (Stephen Barry Band)
EXTD=YEAR: 2004
EXTT0=
EXTT1=
EXTT2=
EXTT3=
EXTT4=
EXTT5=
EXTT6=
EXTT7=
EXTT8=
EXTT9=
EXTT10=
EXTT11=
EXTT12=
EXTT13=
EXTT14=
PLAYORDER=
